<svg width="500" height="500" viewBox="0 0 500 500" xmlns="http://www.w3.org/2000/svg" fill-rule="evenodd" clip-rule="evenodd" stroke-linejoin="round" stroke-miterlimit="2"><g fill="#61dafb" transform="translate(3.016 32.073) scale(14.5285)"><path d="M33.95 15c0-2.23-2.81-4.35-7.12-5.66 1-4.36.55-7.84-1.4-8.95a3.052 3.052 0 00-1.55-.38v1.53c.32 0 .58.06.8.18.93.53 1.34 2.57 1.02 5.2-.08.64-.2 1.32-.35 2.01a33.634 33.634 0 00-4.39-.75 33.686 33.686 0 00-2.88-3.43c2.26-2.08 4.37-3.22 5.81-3.22V0c-1.9 0-4.39 1.35-6.9 3.68-2.52-2.32-5-3.65-6.9-3.65v1.53c1.42 0 3.55 1.13 5.8 3.2a32.44 32.44 0 00-2.86 3.42 32.483 32.483 0 00-4.4.76 20.857 20.857 0 01-.35-2c-.33-2.62.08-4.65 1-5.2.22-.12.49-.17.8-.17V.03c-.58 0-1.1.13-1.56.39C6.58 1.53 6.14 5 7.15 9.35 2.85 10.67.05 12.78.05 15c0 2.23 2.81 4.35 7.12 5.66-1 4.36-.55 7.84 1.4 8.95.45.26.97.38 1.55.38 1.9 0 4.4-1.34 6.9-3.68 2.52 2.32 5.01 3.66 6.91 3.66.58 0 1.1-.13 1.56-.39 1.95-1.11 2.38-4.58 1.38-8.93 4.28-1.31 7.08-3.43 7.08-5.65zm-9-4.58a30.809 30.809 0 01-.93 2.71 32.08 32.08 0 00-1.9-3.25c.98.14 1.93.32 2.83.54zm-3.16 7.31a36.153 36.153 0 01-1.67 2.62 36.206 36.206 0 01-6.23.01 37.882 37.882 0 01-1.67-2.6c-.519-.892-1-1.806-1.44-2.74a36.59 36.59 0 013.1-5.36 36.206 36.206 0 016.23 0 37.882 37.882 0 011.67 2.6c.53.9 1 1.81 1.44 2.73-.44.92-.91 1.84-1.43 2.74zm2.23-.89c.37.92.7 1.84.96 2.73-.91.22-1.86.4-2.85.55a39.747 39.747 0 001.9-3.28h-.01zm-7 7.33a28.382 28.382 0 01-1.93-2.2 43.45 43.45 0 003.82 0 26.681 26.681 0 01-1.9 2.2h.01zm-5.15-4.05a31.646 31.646 0 01-2.83-.54c.26-.89.57-1.8.93-2.71a31.688 31.688 0 001.9 3.25zm5.11-14.29c.677.7 1.318 1.434 1.92 2.2a42.986 42.986 0 00-1.9-.05c-.65 0-1.3.02-1.92.05a26.681 26.681 0 011.9-2.2zm-5.12 4.05a37.793 37.793 0 00-1.89 3.27 29.57 29.57 0 01-.95-2.73c.939-.22 1.886-.401 2.84-.54zm-6.25 8.6c-2.45-1.04-4.03-2.4-4.03-3.48s1.59-2.44 4.03-3.47c.6-.26 1.24-.48 1.92-.7a32.756 32.756 0 001.55 4.18 32.38 32.38 0 00-1.53 4.16 21.154 21.154 0 01-1.94-.7v.01zm3.72 9.8c-.94-.53-1.35-2.57-1.03-5.2.08-.64.2-1.32.35-2.01 1.36.33 2.84.58 4.39.75a33.686 33.686 0 002.88 3.43c-2.26 2.08-4.37 3.22-5.81 3.22-.31 0-.57-.07-.78-.18v-.01zm16.4-5.23c.32 2.63-.09 4.67-1.02 5.2-.2.13-.48.19-.8.19-1.42 0-3.55-1.14-5.8-3.2a32.33 32.33 0 002.86-3.43 32.458 32.458 0 004.4-.75c.15.69.27 1.36.35 2l.01-.01zm2.65-4.58c-.6.26-1.24.49-1.91.7a32.903 32.903 0 00-1.56-4.18 32.43 32.43 0 001.54-4.16c.68.21 1.33.44 1.94.7 2.44 1.03 4.03 2.4 4.03 3.47 0 1.08-1.6 2.45-4.04 3.48v-.01z" fill-rule="nonzero"/><ellipse cx="16.99" cy="15" rx="3.16" ry="3.14"/></g></svg>